<svg version="1.1" id="Layer_1" xmlns="http://www.w3.org/2000/svg" xmlns:xlink="http://www.w3.org/1999/xlink" x="0px" y="0px"
	 width="100%" viewBox="0 0 512 512" enable-background="new 0 0 512 512" xml:space="preserve">
<path fill="#010000" opacity="1.000000" stroke="none" 
	d="
M102.000000,513.000000 
	C68.341805,513.000000 34.683613,513.000000 1.019063,513.000000 
	C1.012708,342.384766 1.012708,171.769516 1.012708,1.077131 
	C171.572281,1.077131 342.144592,1.077131 512.858459,1.077131 
	C512.858459,171.666580 512.858459,342.333282 512.858459,513.000000 
	C479.587128,513.000000 446.262238,513.000000 412.298279,512.698181 
	C408.169922,510.146790 407.368225,506.767090 407.389404,502.873932 
	C407.458160,490.210876 407.531799,477.545563 407.367096,464.884186 
	C407.214874,453.179382 399.858582,445.889557 388.166351,445.857330 
	C358.507416,445.775574 328.847961,445.777710 299.188995,445.854706 
	C287.254639,445.885681 279.923859,453.301056 279.849854,465.227936 
	C279.773346,477.557678 279.712189,489.889984 279.891113,502.217590 
	C279.956757,506.739594 278.868866,510.418060 275.000000,513.000000 
	C263.312439,513.000000 251.624878,513.000000 239.231766,512.750488 
	C235.126480,510.242188 234.096603,506.994537 234.131500,503.035461 
	C234.240189,490.706085 234.202637,478.375000 234.160049,466.044800 
	C234.115311,453.092529 226.993805,445.864685 214.116409,445.842316 
	C184.956879,445.791718 155.797150,445.792725 126.637619,445.842712 
	C113.770432,445.864777 106.681396,453.056793 106.608879,466.073761 
	C106.542976,477.903900 106.479797,489.736237 106.646576,501.564331 
	C106.711372,506.159485 105.902809,510.140839 102.000000,513.000000 
M424.427612,272.046265 
	C424.240967,272.356354 424.054352,272.666412 423.261200,273.235291 
	C420.289276,276.148193 417.312622,279.056305 414.346222,281.974823 
	C403.065247,293.073547 391.828094,304.217346 380.485321,315.252533 
	C376.814484,318.823853 372.518127,318.884369 369.411591,315.780304 
	C366.247131,312.618256 366.416931,308.496246 369.938293,304.708221 
	C371.411499,303.123474 372.990356,301.636322 374.532715,300.116547 
	C388.178314,286.670380 401.917816,273.317902 415.445953,259.754578 
	C426.932800,248.237915 427.655975,231.220413 417.446991,219.619019 
	C412.927124,214.482697 409.311584,214.253296 404.378906,218.950134 
	C376.874023,245.139877 349.381897,271.343018 321.905884,297.563019 
	C310.532623,308.416321 302.461334,321.467987 299.476837,336.823700 
	C297.464783,347.176086 297.544983,357.966400 297.079193,368.577911 
	C296.728210,376.574005 296.359222,377.559204 288.998505,380.475983 
	C288.998505,382.729980 288.998505,385.056549 288.998505,387.383148 
	C288.998505,389.697510 288.998505,392.011902 288.998505,394.209198 
	C295.865356,396.560699 296.998291,398.142181 297.008209,405.148071 
	C297.020111,413.585358 297.011017,422.022644 297.011017,430.557983 
	C328.633850,430.557983 359.691742,430.557983 390.860687,430.557983 
	C390.930481,429.657501 391.050568,429.009705 391.020264,428.369080 
	C390.197876,410.985657 396.298523,396.312836 407.637451,383.260101 
	C434.833679,351.953339 461.684265,320.346649 488.778625,288.950989 
	C497.447113,278.906372 499.933746,267.882385 496.065887,255.096985 
	C479.999847,201.989929 464.117035,148.827423 448.142090,95.692757 
	C445.623322,87.315002 440.264709,83.613586 432.785706,84.905045 
	C425.911804,86.092010 422.192688,91.771980 422.745880,100.304482 
	C423.866455,117.587799 424.938477,134.874649 426.155731,152.151215 
	C427.396057,169.754761 428.786713,187.347702 429.955444,205.792145 
	C430.957550,209.018600 431.360352,212.609436 433.063049,215.409958 
	C441.508728,229.301254 443.942078,251.394363 426.286682,270.275787 
	C426.286682,270.275787 426.209564,270.530334 425.755890,270.764038 
	C425.477081,271.162170 425.198303,271.560333 424.986359,271.980927 
	C424.986359,271.980927 424.970795,271.912109 424.427612,272.046265 
M293.058105,24.127390 
	C292.699463,24.060102 292.340851,23.992815 291.507202,23.408659 
	C275.369507,16.239614 258.573792,14.066648 241.268326,17.541971 
	C203.136261,25.199747 175.877975,54.845425 172.425201,93.647064 
	C170.000702,120.893082 179.065445,144.361710 199.779053,163.727386 
	C236.234970,196.315079 289.763763,192.898575 321.827881,155.815704 
	C325.512848,151.553955 329.286194,149.885605 334.893097,153.386032 
	C337.818787,147.126480 340.712524,141.165756 343.328278,135.085449 
	C343.712067,134.193375 343.165497,132.208328 342.382141,131.624908 
	C338.686707,128.872635 338.471649,125.414131 339.474670,121.378983 
	C342.658508,108.570198 343.051147,95.652245 339.959991,82.808846 
	C333.553192,56.189228 318.410278,36.420483 293.384094,24.545477 
	C293.384094,24.545477 293.346741,24.601864 293.058105,24.127390 
M89.972206,272.424988 
	C89.654251,272.238434 89.336296,272.051849 88.831192,271.342316 
	C88.262299,270.890839 87.693413,270.439331 86.903893,269.333557 
	C72.579758,253.294312 70.506172,232.377472 81.109459,215.062256 
	C82.863708,212.197540 83.003242,208.344040 84.104134,204.129379 
	C85.293663,187.680054 86.525787,171.233658 87.661446,154.780609 
	C88.946320,136.165848 90.232010,117.550331 91.344063,98.924797 
	C91.909454,89.455170 84.724625,83.062943 75.856972,84.978378 
	C70.192322,86.201958 67.436546,90.219322 65.834610,95.579582 
	C49.941807,148.758545 34.018879,201.928772 17.944399,255.053009 
	C14.075912,267.837921 16.515545,278.861603 25.199429,288.920685 
	C52.744148,320.827484 80.121918,352.878326 107.640457,384.807770 
	C115.917282,394.411224 121.192688,405.326752 122.621384,417.924286 
	C123.096985,422.118011 122.696465,426.411041 122.696465,430.616272 
	C154.598907,430.616272 185.537155,430.616272 216.988510,430.616272 
	C216.988510,429.149811 216.988647,427.860840 216.988510,426.571899 
	C216.985901,402.740570 217.171967,378.907257 216.925034,355.078461 
	C216.699265,333.291351 209.040176,314.215363 193.419556,299.014984 
	C165.595596,271.939636 137.328690,245.319183 109.209244,218.548157 
	C104.883316,214.429672 101.228287,214.649796 97.175682,218.945770 
	C86.545998,230.213806 86.764671,247.619949 97.923744,259.097321 
	C105.472961,266.861847 113.322411,274.334381 121.033577,281.941589 
	C128.744614,289.548645 136.518829,297.093414 144.129074,304.800079 
	C147.731522,308.448212 147.714615,312.759399 144.497269,315.872131 
	C141.461273,318.809418 137.372604,318.693146 133.759033,315.528442 
	C132.883224,314.761414 132.100510,313.888763 131.265533,313.074371 
	C117.557991,299.705292 103.848938,286.337769 89.972206,272.424988 
z"/>
<path fill="#CD5668" opacity="1.000000" stroke="none" 
	d="
M102.468658,513.000000 
	C105.902809,510.140839 106.711372,506.159485 106.646576,501.564331 
	C106.479797,489.736237 106.542976,477.903900 106.608879,466.073761 
	C106.681396,453.056793 113.770432,445.864777 126.637619,445.842712 
	C155.797150,445.792725 184.956879,445.791718 214.116409,445.842316 
	C226.993805,445.864685 234.115311,453.092529 234.160049,466.044800 
	C234.202637,478.375000 234.240189,490.706085 234.131500,503.035461 
	C234.096603,506.994537 235.126480,510.242188 238.763107,512.750488 
	C193.645767,513.000000 148.291550,513.000000 102.468658,513.000000 
M211.083878,470.465332 
	C215.738022,471.098328 218.816071,469.160614 219.925217,464.620697 
	C220.830719,460.914307 218.453003,456.947174 214.871109,456.107208 
	C210.886154,455.172699 207.657516,456.361633 205.858383,460.289154 
	C204.060730,464.213501 205.604385,467.553986 211.083878,470.465332 
z"/>
<path fill="#CD5668" opacity="1.000000" stroke="none" 
	d="
M275.468658,513.000000 
	C278.868866,510.418060 279.956757,506.739594 279.891113,502.217590 
	C279.712189,489.889984 279.773346,477.557678 279.849854,465.227936 
	C279.923859,453.301056 287.254639,445.885681 299.188995,445.854706 
	C328.847961,445.777710 358.507416,445.775574 388.166351,445.857330 
	C399.858582,445.889557 407.214874,453.179382 407.367096,464.884186 
	C407.531799,477.545563 407.458160,490.210876 407.389404,502.873932 
	C407.368225,506.767090 408.169922,510.146790 411.829590,512.698181 
	C366.645782,513.000000 321.291534,513.000000 275.468658,513.000000 
M308.610870,464.966522 
	C308.770752,458.973877 305.953705,455.623871 300.939178,455.843414 
	C296.497345,456.037872 292.788239,460.012146 294.191711,464.205872 
	C295.031006,466.713715 297.711792,469.484283 300.190887,470.355652 
	C303.793640,471.622040 306.818909,469.371155 308.610870,464.966522 
z"/>
<path fill="#FECDBE" opacity="1.000000" stroke="none" 
	d="
M430.111572,204.945297 
	C428.786713,187.347702 427.396057,169.754761 426.155731,152.151215 
	C424.938477,134.874649 423.866455,117.587799 422.745880,100.304482 
	C422.192688,91.771980 425.911804,86.092010 432.785706,84.905045 
	C440.264709,83.613586 445.623322,87.315002 448.142090,95.692757 
	C464.117035,148.827423 479.999847,201.989929 496.065887,255.096985 
	C499.933746,267.882385 497.447113,278.906372 488.778625,288.950989 
	C461.684265,320.346649 434.833679,351.953339 407.637451,383.260101 
	C396.298523,396.312836 390.197876,410.985657 391.020264,428.369080 
	C391.050568,429.009705 390.930481,429.657501 390.860687,430.557983 
	C359.691742,430.557983 328.633850,430.557983 297.011017,430.557983 
	C297.011017,422.022644 297.020111,413.585358 297.008209,405.148071 
	C296.998291,398.142181 295.865356,396.560699 288.998505,394.209198 
	C288.998505,392.011902 288.998505,389.697510 288.998505,387.383148 
	C288.998505,385.056549 288.998505,382.729980 288.998505,380.475983 
	C296.359222,377.559204 296.728210,376.574005 297.079193,368.577911 
	C297.544983,357.966400 297.464783,347.176086 299.476837,336.823700 
	C302.461334,321.467987 310.532623,308.416321 321.905884,297.563019 
	C349.381897,271.343018 376.874023,245.139877 404.378906,218.950134 
	C409.311584,214.253296 412.927124,214.482697 417.446991,219.619019 
	C427.655975,231.220413 426.932800,248.237915 415.445953,259.754578 
	C401.917816,273.317902 388.178314,286.670380 374.532715,300.116547 
	C372.990356,301.636322 371.411499,303.123474 369.938293,304.708221 
	C366.416931,308.496246 366.247131,312.618256 369.411591,315.780304 
	C372.518127,318.884369 376.814484,318.823853 380.485321,315.252533 
	C391.828094,304.217346 403.065247,293.073547 414.346222,281.974823 
	C417.312622,279.056305 420.289276,276.148193 423.817688,273.010620 
	C424.573059,272.494659 424.771912,272.203369 424.970795,271.912109 
	C424.970795,271.912109 424.986359,271.980927 425.253723,271.938965 
	C425.750610,271.441437 425.980103,270.985901 426.209595,270.530334 
	C426.209564,270.530334 426.286682,270.275787 426.749329,270.405273 
	C428.101868,270.211243 429.116943,270.064972 429.863159,269.537994 
	C444.548920,259.167053 450.335938,238.662567 443.272095,221.657791 
	C440.466034,214.902695 437.037445,208.514420 430.111572,204.945297 
z"/>
<path fill="#FECDBE" opacity="1.000000" stroke="none" 
	d="
M87.124527,269.987854 
	C87.693413,270.439331 88.262299,270.890839 89.028824,271.861298 
	C89.531044,272.576813 89.835640,272.773346 90.140228,272.969879 
	C103.848938,286.337769 117.557991,299.705292 131.265533,313.074371 
	C132.100510,313.888763 132.883224,314.761414 133.759033,315.528442 
	C137.372604,318.693146 141.461273,318.809418 144.497269,315.872131 
	C147.714615,312.759399 147.731522,308.448212 144.129074,304.800079 
	C136.518829,297.093414 128.744614,289.548645 121.033577,281.941589 
	C113.322411,274.334381 105.472961,266.861847 97.923744,259.097321 
	C86.764671,247.619949 86.545998,230.213806 97.175682,218.945770 
	C101.228287,214.649796 104.883316,214.429672 109.209244,218.548157 
	C137.328690,245.319183 165.595596,271.939636 193.419556,299.014984 
	C209.040176,314.215363 216.699265,333.291351 216.925034,355.078461 
	C217.171967,378.907257 216.985901,402.740570 216.988510,426.571899 
	C216.988647,427.860840 216.988510,429.149811 216.988510,430.616272 
	C185.537155,430.616272 154.598907,430.616272 122.696465,430.616272 
	C122.696465,426.411041 123.096985,422.118011 122.621384,417.924286 
	C121.192688,405.326752 115.917282,394.411224 107.640457,384.807770 
	C80.121918,352.878326 52.744148,320.827484 25.199429,288.920685 
	C16.515545,278.861603 14.075912,267.837921 17.944399,255.053009 
	C34.018879,201.928772 49.941807,148.758545 65.834610,95.579582 
	C67.436546,90.219322 70.192322,86.201958 75.856972,84.978378 
	C84.724625,83.062943 91.909454,89.455170 91.344063,98.924797 
	C90.232010,117.550331 88.946320,136.165848 87.661446,154.780609 
	C86.525787,171.233658 85.293663,187.680054 83.662605,204.603241 
	C66.552208,216.581009 62.499889,244.223541 75.511269,260.734131 
	C78.493881,264.518890 83.207535,266.939453 87.124527,269.987854 
z"/>
<path fill="#FCC064" opacity="1.000000" stroke="none" 
	d="
M199.424988,163.095001 
	C179.065445,144.361710 170.000702,120.893082 172.425201,93.647064 
	C175.877975,54.845425 203.136261,25.199747 241.268326,17.541971 
	C258.573792,14.066648 275.369507,16.239614 291.897461,23.907871 
	C292.640747,24.472012 292.993744,24.536938 293.346741,24.601864 
	C293.346741,24.601864 293.384094,24.545477 293.290100,24.926399 
	C293.475372,26.247967 293.616882,27.258659 294.054352,28.118820 
	C301.508972,42.775803 304.782715,58.245438 304.172852,74.734032 
	C303.469391,93.753654 297.719543,110.808693 286.083801,125.474190 
	C285.806305,109.437202 277.577576,97.975311 263.826599,94.507439 
	C260.463959,93.659409 256.883026,93.717094 253.461441,93.053978 
	C246.686752,91.740967 242.136703,85.895508 242.012177,78.665565 
	C241.888153,71.464638 246.066864,65.846672 252.687347,64.313560 
	C262.188141,62.113453 269.707153,67.475082 270.965942,77.507187 
	C271.492279,81.701729 273.651367,84.901817 277.741119,84.691200 
	C280.335480,84.557602 283.458099,82.388222 285.104492,80.199554 
	C286.326385,78.575188 286.030304,75.364014 285.593353,73.011406 
	C283.343781,60.898293 275.942444,53.299637 264.328735,49.708206 
	C263.151215,37.786850 261.585632,34.599468 256.415070,35.110134 
	C246.867111,36.053120 249.607925,43.999004 248.784149,49.661053 
	C233.604919,55.151928 226.487732,65.195389 227.021820,80.142059 
	C227.480942,92.991310 236.233917,104.043907 248.856659,107.393143 
	C251.886292,108.196999 255.096039,108.319778 258.221802,108.764030 
	C266.425842,109.930054 271.533264,116.442619 270.962830,125.003937 
	C270.438751,132.868927 264.480469,138.098923 256.165131,137.992889 
	C248.167648,137.890900 243.099564,133.177246 242.022781,124.839622 
	C241.363937,119.738029 238.358383,116.795448 234.068497,117.051949 
	C229.760361,117.309540 226.964691,120.740395 227.018555,125.703667 
	C227.136963,136.610703 234.532608,146.877563 245.640213,151.093582 
	C248.199005,152.064804 249.686295,153.096466 248.480179,156.062317 
	C244.377655,157.437225 240.628891,158.743958 236.877151,160.042145 
	C224.655243,164.271149 211.968811,162.809998 199.424988,163.095001 
z"/>
<path fill="#FDA513" opacity="1.000000" stroke="none" 
	d="
M199.602020,163.411194 
	C211.968811,162.809998 224.655243,164.271149 236.877151,160.042145 
	C240.628891,158.743958 244.377655,157.437225 248.550095,156.461456 
	C249.333694,162.631622 251.685837,165.687393 256.037903,165.967606 
	C261.187653,166.299164 262.960663,163.402908 264.407593,152.282104 
	C277.377136,148.205948 284.515015,139.324539 286.148834,125.907829 
	C297.719543,110.808693 303.469391,93.753654 304.172852,74.734032 
	C304.782715,58.245438 301.508972,42.775803 294.054352,28.118820 
	C293.616882,27.258659 293.475372,26.247967 293.323853,24.928534 
	C318.410278,36.420483 333.553192,56.189228 339.959991,82.808846 
	C343.051147,95.652245 342.658508,108.570198 339.474670,121.378983 
	C338.471649,125.414131 338.686707,128.872635 342.382141,131.624908 
	C343.165497,132.208328 343.712067,134.193375 343.328278,135.085449 
	C340.712524,141.165756 337.818787,147.126480 334.893097,153.386032 
	C329.286194,149.885605 325.512848,151.553955 321.827881,155.815704 
	C289.763763,192.898575 236.234970,196.315079 199.602020,163.411194 
z"/>
<path fill="#FAAD9B" opacity="1.000000" stroke="none" 
	d="
M430.033508,205.368713 
	C437.037445,208.514420 440.466034,214.902695 443.272095,221.657791 
	C450.335938,238.662567 444.548920,259.167053 429.863159,269.537994 
	C429.116943,270.064972 428.101868,270.211243 426.877197,270.368774 
	C443.942078,251.394363 441.508728,229.301254 433.063049,215.409958 
	C431.360352,212.609436 430.957550,209.018600 430.033508,205.368713 
z"/>
<path fill="#F9AD9B" opacity="1.000000" stroke="none" 
	d="
M87.014206,269.660706 
	C83.207535,266.939453 78.493881,264.518890 75.511269,260.734131 
	C62.499889,244.223541 66.552208,216.581009 83.555038,205.012299 
	C83.003242,208.344040 82.863708,212.197540 81.109459,215.062256 
	C70.506172,232.377472 72.579758,253.294312 87.014206,269.660706 
z"/>
<path fill="#FAAD9B" opacity="1.000000" stroke="none" 
	d="
M425.982727,270.647186 
	C425.980103,270.985901 425.750610,271.441437 425.220306,271.927734 
	C425.198303,271.560333 425.477081,271.162170 425.982727,270.647186 
z"/>
<path fill="#F9AD9B" opacity="1.000000" stroke="none" 
	d="
M90.056213,272.697449 
	C89.835640,272.773346 89.531044,272.576813 89.122398,272.122803 
	C89.336296,272.051849 89.654251,272.238434 90.056213,272.697449 
z"/>
<path fill="#FAAD9B" opacity="1.000000" stroke="none" 
	d="
M424.699219,271.979187 
	C424.771912,272.203369 424.573059,272.494659 424.120941,272.881226 
	C424.054352,272.666412 424.240967,272.356354 424.699219,271.979187 
z"/>
<path fill="#FDA513" opacity="1.000000" stroke="none" 
	d="
M293.202423,24.364628 
	C292.993744,24.536938 292.640747,24.472012 292.134979,24.166306 
	C292.340851,23.992815 292.699463,24.060102 293.202423,24.364628 
z"/>
<path fill="#060303" opacity="1.000000" stroke="none" 
	d="
M210.725006,470.348511 
	C205.604385,467.553986 204.060730,464.213501 205.858383,460.289154 
	C207.657516,456.361633 210.886154,455.172699 214.871109,456.107208 
	C218.453003,456.947174 220.830719,460.914307 219.925217,464.620697 
	C218.816071,469.160614 215.738022,471.098328 210.725006,470.348511 
z"/>
<path fill="#070304" opacity="1.000000" stroke="none" 
	d="
M308.469421,465.320374 
	C306.818909,469.371155 303.793640,471.622040 300.190887,470.355652 
	C297.711792,469.484283 295.031006,466.713715 294.191711,464.205872 
	C292.788239,460.012146 296.497345,456.037872 300.939178,455.843414 
	C305.953705,455.623871 308.770752,458.973877 308.469421,465.320374 
z"/>
<path fill="#040301" opacity="1.000000" stroke="none" 
	d="
M286.083801,125.474190 
	C284.515015,139.324539 277.377136,148.205948 264.407593,152.282104 
	C262.960663,163.402908 261.187653,166.299164 256.037903,165.967606 
	C251.685837,165.687393 249.333694,162.631622 248.902481,156.389359 
	C249.686295,153.096466 248.199005,152.064804 245.640213,151.093582 
	C234.532608,146.877563 227.136963,136.610703 227.018555,125.703667 
	C226.964691,120.740395 229.760361,117.309540 234.068497,117.051949 
	C238.358383,116.795448 241.363937,119.738029 242.022781,124.839622 
	C243.099564,133.177246 248.167648,137.890900 256.165131,137.992889 
	C264.480469,138.098923 270.438751,132.868927 270.962830,125.003937 
	C271.533264,116.442619 266.425842,109.930054 258.221802,108.764030 
	C255.096039,108.319778 251.886292,108.196999 248.856659,107.393143 
	C236.233917,104.043907 227.480942,92.991310 227.021820,80.142059 
	C226.487732,65.195389 233.604919,55.151928 248.784149,49.661053 
	C249.607925,43.999004 246.867111,36.053120 256.415070,35.110134 
	C261.585632,34.599468 263.151215,37.786850 264.328735,49.708206 
	C275.942444,53.299637 283.343781,60.898293 285.593353,73.011406 
	C286.030304,75.364014 286.326385,78.575188 285.104492,80.199554 
	C283.458099,82.388222 280.335480,84.557602 277.741119,84.691200 
	C273.651367,84.901817 271.492279,81.701729 270.965942,77.507187 
	C269.707153,67.475082 262.188141,62.113453 252.687347,64.313560 
	C246.066864,65.846672 241.888153,71.464638 242.012177,78.665565 
	C242.136703,85.895508 246.686752,91.740967 253.461441,93.053978 
	C256.883026,93.717094 260.463959,93.659409 263.826599,94.507439 
	C277.577576,97.975311 285.806305,109.437202 286.083801,125.474190 
z"/>
</svg>