<?xml version="1.0" standalone="no"?>
<!DOCTYPE svg PUBLIC "-//W3C//DTD SVG 20010904//EN"
 "http://www.w3.org/TR/2001/REC-SVG-20010904/DTD/svg10.dtd">
<svg version="1.0" xmlns="http://www.w3.org/2000/svg"
 width="512.000000pt" height="512.000000pt" viewBox="0 0 512.000000 512.000000"
 preserveAspectRatio="xMidYMid meet">

<g transform="translate(0.000000,512.000000) scale(0.100000,-0.100000)"
fill="#000000" stroke="none">
<path d="M2387 5105 c-364 -69 -659 -324 -776 -672 -119 -353 -23 -752 244
-1018 351 -352 910 -391 1306 -93 84 63 176 158 190 196 11 30 6 51 -22 80
-37 40 -63 29 -163 -67 -189 -182 -361 -254 -606 -254 -170 0 -281 30 -435
117 -96 54 -246 206 -302 306 -147 263 -147 577 0 840 57 103 214 260 317 317
329 184 728 136 998 -121 87 -83 140 -157 192 -270 63 -136 91 -310 70 -441
-22 -140 -23 -174 -9 -191 35 -42 105 -37 127 10 43 95 50 364 14 510 -26 103
-90 245 -152 337 -130 190 -352 342 -585 400 -107 27 -304 34 -408 14z"/>
<path d="M2505 4755 c-20 -19 -25 -34 -25 -72 0 -47 -1 -48 -43 -66 -62 -25
-108 -67 -142 -128 -27 -49 -30 -63 -30 -144 0 -81 3 -95 30 -144 52 -94 127
-141 259 -160 80 -12 119 -41 138 -102 37 -126 -99 -237 -209 -169 -40 24 -59
53 -72 110 -17 78 -78 104 -128 54 -23 -23 -25 -31 -20 -80 10 -101 79 -192
174 -231 42 -18 43 -19 43 -64 0 -55 29 -89 76 -89 45 0 74 36 74 92 0 44 1
45 42 57 60 18 140 102 163 170 26 78 17 181 -21 250 -49 92 -127 141 -253
159 -53 8 -80 17 -98 34 -50 46 -67 123 -38 178 64 123 250 94 272 -43 12 -80
79 -112 130 -61 23 23 25 31 20 80 -10 101 -79 192 -174 231 -42 18 -43 19
-43 66 0 56 -32 97 -75 97 -14 0 -37 -11 -50 -25z"/>
<path d="M677 4415 c-57 -21 -110 -67 -139 -122 -41 -77 -528 -1713 -535
-1798 -6 -81 12 -166 52 -246 15 -29 213 -268 479 -578 249 -290 465 -548 479
-572 37 -62 57 -150 57 -244 -1 -80 -1 -80 -35 -105 -19 -14 -48 -44 -65 -67
-56 -78 -60 -101 -60 -384 0 -252 1 -259 22 -278 21 -20 33 -21 759 -21 728 0
737 1 763 21 l26 20 0 254 c0 310 -5 332 -107 433 l-63 64 0 428 c0 453 -6
526 -50 655 -31 89 -84 192 -139 266 -61 83 -948 932 -1001 959 -22 11 -59 20
-85 20 l-45 0 0 43 c0 23 14 236 30 472 37 532 37 574 6 640 -47 100 -135 155
-246 154 -36 0 -82 -7 -103 -14z m163 -150 c39 -20 60 -63 60 -122 0 -26 -16
-286 -36 -578 l-35 -530 -40 -80 c-51 -102 -65 -184 -50 -276 23 -138 36 -157
338 -456 299 -299 305 -302 358 -248 53 52 48 57 -235 337 -216 213 -265 266
-286 312 -48 105 -28 235 48 314 63 64 48 75 498 -353 223 -212 436 -417 473
-457 115 -120 191 -274 217 -438 5 -36 10 -242 10 -467 l0 -403 -470 0 -470 0
0 68 c0 128 -48 263 -128 362 -20 25 -228 268 -463 541 -258 301 -434 515
-448 544 -12 26 -24 74 -27 108 -6 59 6 102 250 917 247 823 258 856 291 888
40 37 94 43 145 17z"/>
<path d="M4230 4409 c-60 -27 -107 -74 -136 -134 -31 -66 -31 -108 6 -640 16
-236 30 -449 30 -472 l0 -43 -45 0 c-25 0 -63 -9 -84 -19 -43 -22 -921 -857
-982 -933 -144 -183 -209 -385 -209 -653 0 -149 8 -170 67 -181 26 -5 37 -1
57 19 25 25 26 30 26 149 0 68 5 152 10 188 22 135 79 269 161 376 22 28 240
242 484 475 489 466 478 458 537 402 50 -46 78 -117 78 -198 0 -122 -14 -142
-310 -434 -219 -215 -260 -260 -260 -284 0 -38 41 -77 80 -77 26 0 66 35 304
273 300 299 314 318 337 456 15 92 1 174 -50 276 l-40 80 -35 530 c-20 292
-36 552 -36 578 0 88 46 137 130 137 32 0 48 -7 75 -32 33 -32 44 -64 290
-886 140 -469 255 -869 255 -890 0 -46 -25 -135 -48 -171 -9 -14 -206 -246
-437 -516 -231 -269 -437 -510 -457 -535 -80 -99 -128 -234 -128 -362 l0 -68
-470 0 -470 0 0 158 c0 153 -1 159 -23 180 -33 31 -80 29 -106 -4 -19 -25 -21
-40 -21 -198 l0 -171 -53 -46 c-29 -25 -66 -70 -82 -100 l-30 -54 -3 -271 -3
-272 27 -21 c26 -21 30 -21 762 -21 l736 0 23 22 c23 21 23 23 23 278 0 286
-3 307 -64 389 -19 25 -49 55 -65 66 -30 20 -31 22 -31 100 0 94 20 182 57
244 14 24 230 282 479 572 266 310 464 549 479 578 40 80 58 165 52 246 -7 85
-494 1721 -535 1798 -30 56 -82 101 -142 122 -61 22 -156 19 -210 -6z"/>
</g>
</svg>
